<svg version="1.1" id="Layer_1" xmlns="http://www.w3.org/2000/svg" xmlns:xlink="http://www.w3.org/1999/xlink" x="0px" y="0px"
	 width="100%" viewBox="0 0 1024 1024" enable-background="new 0 0 1024 1024" xml:space="preserve">
<path fill="#000000" opacity="1.000000" stroke="none" 
	d="
M315.634216,127.590622 
	C357.106354,105.995399 400.833649,92.406288 446.489197,84.981026 
	C479.159607,79.667641 512.143555,78.250992 545.096497,81.015434 
	C633.238892,88.409744 712.520630,118.843498 781.896667,174.103714 
	C842.393250,222.291153 886.992981,282.436981 915.512268,354.278381 
	C931.954468,395.697144 941.417480,438.743439 944.514648,483.342621 
	C947.093750,520.481812 945.430542,557.213013 938.406189,593.705750 
	C925.431458,661.111694 898.121643,722.132202 856.207886,776.529480 
	C815.368225,829.532776 765.031189,871.193787 705.117554,900.909119 
	C655.693848,925.421814 603.449219,940.096863 548.240479,944.484253 
	C486.189941,949.415344 425.872711,941.953247 367.337463,921.021973 
	C310.913757,900.845764 260.800812,870.162476 217.138229,828.994385 
	C149.432419,765.156799 106.720482,687.454224 88.087250,596.450134 
	C81.108376,562.365540 78.486618,527.755310 80.166862,493.087280 
	C84.259109,408.653778 110.654327,331.587189 159.644257,262.588287 
	C200.509430,205.032578 252.572159,160.183716 315.634216,127.590622 
M254.221268,192.728546 
	C247.014954,198.906067 239.548401,204.807571 232.650116,211.311768 
	C210.163177,232.514084 189.859055,255.605896 172.457260,281.234070 
	C147.066422,318.627960 128.218445,358.984314 115.952713,402.506561 
	C103.586510,446.385376 99.319206,490.949982 101.882698,536.453369 
	C104.785995,587.988220 116.934120,637.072205 138.201920,683.968994 
	C155.466644,722.038635 178.329254,756.489319 206.133530,787.675842 
	C249.611832,836.443115 301.905304,872.683716 362.570831,896.665833 
	C403.597198,912.884216 446.197357,922.152527 490.415131,924.164917 
	C522.840759,925.640625 555.008972,924.200806 586.904663,918.290161 
	C630.469910,910.216980 671.747009,895.645569 710.558044,874.118408 
	C745.176575,854.916748 776.654663,831.549011 804.516785,803.458008 
	C845.532715,762.105103 876.950134,714.349548 897.745728,659.906677 
	C917.636719,607.831787 926.926514,554.035583 924.201172,498.034698 
	C922.209595,457.111816 915.646484,417.226776 902.004395,378.687134 
	C868.357056,283.632019 808.227783,209.916412 721.576721,158.291931 
	C660.210815,121.731621 593.552612,102.830994 522.079041,101.330223 
	C480.689240,100.461143 440.011292,105.326225 400.167816,116.858116 
	C346.676697,132.340027 298.095612,157.218170 254.221268,192.728546 
z"/>
<path fill="#000000" opacity="1.000000" stroke="none" 
	d="
M276.670715,352.079773 
	C304.804504,356.186737 331.286652,364.296173 357.998138,376.985229 
	C355.764160,370.037842 352.440918,365.544098 348.063507,361.836365 
	C342.852692,357.422729 337.351715,353.352783 332.111389,348.972565 
	C316.907593,336.264069 305.842987,320.320282 296.394592,303.104156 
	C287.559235,287.004974 280.845795,269.941193 273.309998,253.244125 
	C262.101807,228.410141 279.430634,218.658905 296.750824,217.924713 
	C310.263458,217.351913 323.157776,220.990158 335.840607,225.129303 
	C365.678162,234.867020 391.832947,251.424820 417.020599,269.653381 
	C447.477722,291.695557 475.368500,316.778168 501.628937,343.562988 
	C530.315247,372.822144 558.065979,402.996887 586.348755,432.653961 
	C607.729858,455.073883 629.481445,477.129791 652.615051,497.770905 
	C653.817810,498.844086 654.895325,500.249878 656.844299,500.283722 
	C658.476807,499.121765 658.546448,497.158813 659.117737,495.486725 
	C664.608459,479.417114 675.410217,468.548706 691.982910,465.014313 
	C710.022522,461.167114 725.153687,467.573395 736.814270,481.670990 
	C739.445068,484.851746 740.925659,485.425323 744.822449,483.315155 
	C783.176758,462.545959 820.762756,464.718903 857.384766,487.916382 
	C858.974243,488.923218 860.960876,489.788818 861.406982,492.105652 
	C859.596924,493.544342 858.263916,492.026489 856.880310,491.450195 
	C841.015381,484.842041 825.011353,478.639465 807.759521,476.757202 
	C789.040588,474.714874 771.165833,476.953125 755.285583,488.137390 
	C753.560486,489.352356 751.575134,490.390656 750.734192,493.196106 
	C804.142639,495.383118 850.059753,514.861267 889.452026,551.510559 
	C886.457275,553.039734 885.269775,551.491211 883.930725,550.712097 
	C856.387878,534.686768 827.934448,520.468262 798.650879,507.925629 
	C790.199890,504.305969 781.471375,501.483826 772.049438,502.028900 
	C770.719421,502.105804 769.378540,502.115692 768.062683,502.299561 
	C759.480530,503.498810 758.656311,504.814148 761.875671,512.602539 
	C768.575562,528.811462 771.637939,545.745667 772.139893,563.203979 
	C772.265503,567.575806 771.482117,571.831177 770.295654,576.009277 
	C767.045959,587.453003 759.108276,592.401428 747.502319,589.694458 
	C726.635315,584.827576 708.422180,574.765930 692.247864,560.810974 
	C686.458984,555.816345 681.476135,550.037598 675.674011,543.806152 
	C672.454773,549.758850 671.680359,555.602173 671.230347,561.448853 
	C669.308533,586.413025 678.950623,606.370361 697.211914,623.024231 
	C707.063049,632.008240 716.178101,641.820435 717.980957,656.169189 
	C719.001465,664.290955 715.210327,674.255615 708.608582,677.601685 
	C709.373047,674.885376 710.333252,672.636292 710.601807,670.307434 
	C711.494202,662.567810 708.937134,655.932251 703.772583,650.153137 
	C698.492615,644.244873 691.876099,639.984741 685.652100,635.261047 
	C671.231201,624.316223 661.554138,610.116638 655.933838,593.018433 
	C655.522522,591.767212 654.999756,590.552673 654.430969,589.065063 
	C652.014099,589.987427 651.179565,592.042419 650.197327,593.852173 
	C636.549255,618.998474 635.906677,644.548889 647.462952,670.673767 
	C653.789734,684.976440 662.533569,698.266785 666.376709,713.597229 
	C670.192505,728.818787 669.806335,743.691895 660.060608,757.044983 
	C657.514343,760.533691 654.337708,763.252502 650.236206,764.693787 
	C649.131775,762.885681 650.079468,761.973999 650.639099,761.013489 
	C661.548889,742.292053 660.059814,724.199158 647.854919,706.677734 
	C632.635559,684.828674 624.362427,660.687927 622.484314,634.061829 
	C621.943970,626.400940 623.359619,618.846741 622.456848,610.173950 
	C615.786194,613.823730 611.126526,618.821045 607.042175,624.026794 
	C587.955017,648.354248 582.776306,675.286926 592.825928,704.843872 
	C596.633362,716.041931 601.993225,726.694580 604.958008,738.164673 
	C608.217590,750.775696 609.734985,763.585876 602.858154,775.549072 
	C597.761292,784.415710 589.962952,789.782532 579.399475,790.297241 
	C577.834839,790.373474 576.064026,790.752319 574.867737,789.277283 
	C574.751831,787.738525 575.954468,787.624084 576.807983,787.294556 
	C588.643188,782.725037 595.341125,771.482544 594.075867,758.946838 
	C593.118652,749.462830 589.535950,740.892151 585.562012,732.450439 
	C567.760559,694.635498 567.756409,656.928223 586.206299,619.373474 
	C587.930115,615.864563 587.681641,614.133301 583.948181,612.524048 
	C574.538513,608.468262 567.253296,601.719055 560.993713,592.851379 
	C559.312439,598.123108 559.489868,603.068298 558.696716,607.839539 
	C552.735168,643.701355 534.049438,671.646912 505.650238,693.671204 
	C488.929901,706.638184 470.940582,717.868591 454.695648,731.495117 
	C426.209503,755.389587 410.231598,785.620911 406.955322,822.731750 
	C406.330688,829.807434 406.602844,836.836548 406.782623,843.755676 
	C404.297882,844.500793 403.592407,842.865967 402.682495,841.823669 
	C378.026306,813.579102 362.038696,781.096802 354.887909,744.256104 
	C350.462280,721.455383 350.145508,698.530334 353.964661,675.735107 
	C359.361908,643.521301 372.004211,614.193665 391.521210,587.915649 
	C406.704346,567.472778 424.864624,550.245850 447.067474,537.617371 
	C478.200684,519.909668 508.271057,523.088806 533.612793,543.885681 
	C538.652466,548.021484 542.415771,553.314209 546.769348,559.098572 
	C559.604126,546.065857 567.163147,531.275024 570.346252,513.430298 
	C562.745483,513.044067 556.093384,514.740479 549.442200,515.674194 
	C521.759155,519.560547 494.070892,523.463684 466.232666,525.960022 
	C449.182526,527.488953 432.061584,528.412476 414.959961,529.440857 
	C397.626129,530.483154 380.303436,530.442078 363.016418,529.994202 
	C332.873169,529.213379 302.898315,526.192749 273.367004,519.727173 
	C266.324219,518.185242 259.658142,515.644287 253.505829,511.798889 
	C237.574295,501.841125 238.010025,484.426208 254.387619,475.165771 
	C265.057251,469.132812 276.958405,467.119629 288.696808,464.929657 
	C312.670502,460.456940 336.938354,459.211945 361.300140,459.860107 
	C379.773132,460.351593 398.181458,461.780334 416.532349,463.945526 
	C464.852722,469.646759 512.635437,478.487305 560.177429,488.694092 
	C573.689209,491.594940 587.133240,494.816864 600.580750,498.007660 
	C604.067566,498.834961 607.452820,498.951599 610.962158,498.269165 
	C615.422180,497.401855 619.944397,497.203766 624.280579,498.837646 
	C629.098206,500.652924 632.007324,505.670746 631.192139,510.320862 
	C630.432007,514.657471 626.765015,517.110168 621.011536,517.238281 
	C616.902161,517.329834 613.140015,516.121338 609.472412,514.435242 
	C606.749939,513.183716 604.024841,511.933960 601.264099,510.770691 
	C594.497803,507.919678 588.749573,509.534546 584.415161,515.282349 
	C570.931213,533.163086 561.276489,552.973267 555.133667,574.499390 
	C555.009033,574.936157 555.160095,575.451599 555.201416,576.330505 
	C560.900146,573.273560 564.883728,568.103271 570.335754,565.511414 
	C572.460022,567.251221 571.669617,568.926941 571.463806,570.526489 
	C570.683411,576.592041 571.173950,582.549988 573.633972,588.170227 
	C578.769226,599.902100 591.119812,602.335571 600.287598,593.457153 
	C601.696228,592.093018 602.973083,591.945618 604.770325,592.436096 
	C616.747803,595.705078 622.965149,593.547485 630.592590,583.378296 
	C631.914917,581.615234 633.022705,581.228149 635.175842,581.885437 
	C642.033386,583.978821 649.004639,580.296326 651.516785,573.425232 
	C652.429810,570.927795 652.961304,568.291931 653.849060,565.783752 
	C654.790466,563.124146 655.232788,559.691223 657.144165,558.081909 
	C663.188782,552.992615 661.140137,547.202820 659.785339,541.217896 
	C657.757141,532.258545 655.206482,523.484253 651.343262,515.121521 
	C643.134094,497.351013 629.174988,487.302765 609.705688,487.658386 
	C580.860168,488.185211 555.647156,477.803650 531.122375,464.475861 
	C462.868286,427.383698 392.199463,396.018982 317.641541,373.718536 
	C293.812775,366.591370 269.814301,360.414673 244.958115,358.592682 
	C229.325394,357.446808 213.647552,357.908539 198.266113,361.529175 
	C193.717834,362.599823 189.377991,364.417938 185.613266,367.306213 
	C177.953751,373.182465 176.832108,380.494232 182.746796,388.123199 
	C193.301453,401.736938 205.561646,413.749969 218.478271,425.084503 
	C234.071518,438.767761 251.169708,450.323151 269.303864,460.366821 
	C270.587677,461.077850 272.117340,461.512573 272.686096,463.521210 
	C270.438019,466.086578 267.500885,466.256927 264.292877,465.743378 
	C255.105377,464.272736 248.225677,458.679474 241.571106,452.844971 
	C221.030838,434.835999 200.593918,416.709137 180.121811,398.622467 
	C179.248123,397.850555 178.410507,397.036285 177.578674,396.218781 
	C164.674942,383.537964 167.237930,366.037445 183.205872,357.223755 
	C193.770615,351.392426 205.437088,350.934814 217.032089,349.718903 
	C236.903534,347.635162 256.560974,349.774780 276.670715,352.079773 
M434.225372,297.287933 
	C428.148285,292.353149 422.107910,287.372406 415.987579,282.491852 
	C393.247498,264.358063 369.405792,247.953857 342.369629,236.773087 
	C327.867584,230.775803 312.990509,225.862335 297.135590,225.156906 
	C284.720032,224.604492 277.453857,231.898895 277.215118,244.226471 
	C276.981415,256.297180 283.033844,265.612396 290.400970,274.137329 
	C299.518280,284.687561 306.557983,296.273621 309.196991,310.009247 
	C312.946533,329.524780 327.896912,337.896149 343.500488,345.852570 
	C349.532349,334.572571 354.530640,330.462006 363.785797,329.778412 
	C368.925446,329.398804 374.098450,329.458221 379.245056,330.205933 
	C409.868591,334.654999 437.894745,346.235016 464.615051,361.342926 
	C498.780975,380.660614 530.417969,403.697540 561.519531,427.510773 
	C570.521301,434.403076 579.511292,441.310669 588.506714,448.211243 
	C541.387024,393.762665 489.771057,344.015961 434.225372,297.287933 
M470.920013,515.026917 
	C480.352417,514.126282 489.811523,513.442261 499.212280,512.284485 
	C527.962952,508.743622 556.814819,506.702179 585.766235,505.978088 
	C587.997681,505.922272 590.231750,505.970795 593.591370,505.970795 
	C590.877930,503.232269 588.598083,502.771240 586.378052,502.426270 
	C550.037903,496.778687 513.774658,490.663788 477.299438,485.853516 
	C443.000366,481.330231 408.757599,476.392029 374.331024,472.898712 
	C348.453094,470.272797 322.549347,468.742065 296.632294,472.291107 
	C282.889252,474.173065 269.447906,477.306580 257.027008,483.762604 
	C252.677902,486.023163 249.326691,489.520020 249.494720,494.700134 
	C249.652481,499.564087 253.396942,502.152100 257.397949,504.201324 
	C263.936127,507.549957 270.664185,510.443695 277.698486,512.580994 
	C304.577393,520.747742 332.281036,522.442078 360.103821,522.548279 
	C376.566956,522.611145 393.034058,522.075562 409.493378,520.965271 
	C429.736267,519.599792 449.891754,517.513916 470.920013,515.026917 
M514.068176,640.396118 
	C505.053558,628.114380 494.618622,617.200378 482.848816,607.515625 
	C470.686462,597.507874 457.486267,589.199463 443.176422,582.655212 
	C429.206543,576.266418 419.411438,578.081116 408.751312,588.877991 
	C401.700134,596.019653 395.753571,604.033997 390.256317,612.388245 
	C388.765411,614.654053 386.520111,616.636047 386.511932,619.482483 
	C387.690979,621.000488 389.144470,620.697021 390.411041,620.887634 
	C408.109772,623.549683 424.539703,629.564148 439.646698,639.221924 
	C456.843079,650.215332 470.363953,664.591064 480.254211,682.454285 
	C483.363312,688.069702 486.508301,689.307678 491.125122,686.314331 
	C501.608124,679.517639 511.291138,671.607971 520.854919,663.583679 
	C524.084656,660.873840 524.329224,657.352478 522.500793,653.610901 
	C520.296448,649.100037 517.490967,644.977600 514.068176,640.396118 
M759.467773,532.058411 
	C758.131470,527.769348 756.868958,523.455688 755.444824,519.195984 
	C751.345947,506.936371 748.458862,506.315216 738.238708,511.471222 
	C735.558289,512.823486 732.688660,513.857300 729.599304,512.634949 
	C728.181335,512.073853 726.682434,511.448517 726.698730,509.629425 
	C726.712952,508.046478 728.084717,507.471222 729.317383,506.949249 
	C732.535034,505.586670 735.829773,504.391388 738.984009,502.897705 
	C743.459534,500.778351 743.632690,499.348663 740.025940,496.144836 
	C728.998596,486.349487 716.216125,479.656158 702.141479,475.602264 
	C686.091248,470.979431 677.631531,475.355438 671.470947,490.776154 
	C669.557251,495.566376 667.848511,500.443817 665.789795,505.169708 
	C662.469299,512.792114 663.842896,519.192505 669.618958,525.209839 
	C681.891357,537.994873 695.142273,549.569641 709.995605,559.256836 
	C721.027466,566.451660 732.372986,573.125061 744.795959,577.644043 
	C752.968384,580.616943 759.219055,577.195740 761.831421,568.890747 
	C762.535767,566.651611 762.884399,564.387390 762.970215,562.029480 
	C763.330200,552.133484 761.882080,542.459290 759.467773,532.058411 
M451.698120,688.797546 
	C446.274261,682.673706 440.078247,677.370361 433.755005,672.235352 
	C419.952911,661.026917 404.800934,652.085510 387.937073,646.339172 
	C376.662537,642.497375 370.268707,645.880920 366.956970,656.990906 
	C363.915100,667.195557 361.598663,677.575256 359.737122,688.066833 
	C359.052460,691.925659 360.110840,693.627380 364.164948,693.848206 
	C389.531433,695.229675 409.275208,706.399414 422.688354,728.140015 
	C425.018219,731.916382 427.665619,732.513123 430.819794,729.955811 
	C440.247803,722.311584 449.572205,714.535767 458.803192,706.654541 
	C461.863098,704.042053 461.620117,700.831177 459.148468,697.795837 
	C456.838806,694.959412 454.474457,692.167419 451.698120,688.797546 
M550.239807,430.299194 
	C523.744812,410.912170 496.604523,392.493774 468.338379,375.767365 
	C448.095947,363.788940 427.463776,352.621704 404.876526,345.575775 
	C390.955536,341.233246 376.738434,338.733948 362.112549,339.267578 
	C357.966431,339.418854 354.004456,340.527924 353.107819,345.503845 
	C352.191650,350.588196 356.137909,351.477417 359.626709,352.704651 
	C398.306732,366.310822 436.051910,382.157379 472.987488,399.952667 
	C513.702087,419.568634 552.851990,441.968536 591.009644,466.141663 
	C595.255432,468.831299 599.761230,470.944946 604.714783,471.992004 
	C605.845520,472.231018 607.154358,472.736725 607.656128,471.160095 
	C608.158142,469.582733 607.383057,468.581543 605.771667,468.315521 
	C598.894287,467.180084 593.698120,462.935974 588.371643,458.934570 
	C575.853943,449.530884 563.342224,440.119293 550.239807,430.299194 
M521.947144,597.585022 
	C528.784607,606.029358 534.545288,615.129761 539.001892,625.064392 
	C540.180359,627.691345 541.198059,630.670654 544.429260,631.621460 
	C546.228455,630.548645 546.500732,628.874878 546.725342,627.242615 
	C550.054199,603.048523 546.558228,580.529236 530.759949,560.892456 
	C511.356934,536.775269 477.122742,531.251587 453.002991,548.513123 
	C451.446289,549.627136 449.473114,550.462036 449.044525,553.421509 
	C477.990906,559.873291 502.206146,574.427307 521.947144,597.585022 
M400.155121,779.809387 
	C403.449554,772.907227 406.701843,765.984497 410.050385,759.108643 
	C413.309479,752.416565 412.804016,746.191528 407.706818,740.660583 
	C404.325897,736.991821 400.842041,733.385132 397.118256,730.072083 
	C389.360291,723.169617 380.723907,717.496765 371.179413,713.395508 
	C363.554810,710.119141 359.132660,713.260925 359.247803,721.458191 
	C359.261780,722.454529 359.295074,723.461853 359.450867,724.443237 
	C363.848145,752.147278 373.802795,777.676758 389.486206,800.947205 
	C390.258911,802.093811 390.674133,803.794861 392.804138,803.756836 
	C395.160156,796.037598 397.524719,788.290344 400.155121,779.809387 
M554.664062,452.890686 
	C491.556519,417.548218 426.322449,386.782104 358.227448,360.500916 
	C358.548004,365.318451 360.837006,367.802551 363.021118,370.258972 
	C367.883698,375.727722 374.167908,379.210785 380.695953,382.195892 
	C414.754547,397.770081 448.854614,413.253601 482.935516,428.778961 
	C506.264862,439.406586 529.570251,450.097046 553.912231,458.277740 
	C559.000183,459.987671 564.213135,461.325775 569.368469,462.835205 
	C569.532715,462.429626 569.696899,462.024017 569.861145,461.618408 
	C565.012451,458.824219 560.163757,456.030029 554.664062,452.890686 
M588.541931,475.738159 
	C580.143677,475.181335 572.710327,469.971436 563.978333,470.467194 
	C570.963379,476.032654 578.552795,480.181519 587.191956,481.712585 
	C590.637329,482.323181 591.351624,479.949554 588.541931,475.738159 
M615.318115,508.340118 
	C614.495422,508.736969 613.747681,509.632843 614.634277,510.132904 
	C616.940857,511.433868 619.506775,511.349304 621.470642,509.497253 
	C623.308167,507.764435 623.559509,505.673248 621.470642,503.717194 
	C619.451843,505.308228 617.677368,506.706665 615.318115,508.340118 
z"/>
</svg>